{"title":"Daft Punk Ft. Julian Casablancas - Instant Crush [Music Video] 1","uid":9356064,"size":88551944,"categoryP":"video","categoryS":"music_videos","magnet":"?xt=urn:btih:09fd3c3f72ea213aef1dfb684d2ec719f05738a0&amp;dn=Daft+Punk+Ft.+Julian+Casablancas+-+Instant+Crush+%5BMusic+Video%5D+1&amp;tr=udp%3A%2F%2Ftracker.openbittorrent.com%3A80&amp;tr=udp%3A%2F%2Fopen.demonii.com%3A1337&amp;tr=udp%3A%2F%2Ftracker.coppersurfer.tk%3A6969&amp;tr=udp%3A%2F%2Fexodus.desync.com%3A6969","seeders":7,"leechers":0,"uploader":"Sbyky","files":1,"time":1387217328,"description":"[IMG]http://cdn.piczend.com/images/IzACI2oG/1387185276_instantcrush.jpg[/IMG]\n\nGeneral\nComplete name                            : Daft Punk Ft. Julian Casablancas - Instant Crush [Music Video] 1080p [Sbyky].mp4\nFormat                                   : MPEG-4\nFormat profile                           : Base Media\nCodec ID                                 : isom\nFile size                                : 84.4 MiB\nDuration                                 : 5mn 39s\nOverall bit rate mode                    : Variable\nOverall bit rate                         : 2 085 Kbps\nEncoded date                             : UTC 2013-12-08 02:29:12\nTagged date                              : UTC 2013-12-08 02:29:12\n\nVideo\nID                                       : 1\nFormat                                   : AVC\nFormat/Info                              : Advanced Video Codec\nFormat profile                           : &lt;a class=&quot;__cf_email__&quot; href=&quot;/cdn-cgi/l/email-protection&quot; data-cfemail=&quot;ace4c5cbc4ece098829c&quot;&gt;[email&amp;#160;protected]&lt;/a&gt;&lt;script data-cfhash='f9e31' type=&quot;text/javascript&quot;&gt;\n/* &lt;![CDATA[ */!function(){try{var t=&quot;currentScript&quot;in document?document.currentScript:function(){for(var t=document.getElementsByTagName(&quot;script&quot;),e=t.length;e--;)if(t[e].getAttribute(&quot;data-cfhash&quot;))return t[e]}();if(t&amp;&amp;t.previousSibling){var e,r,n,i,c=t.previousSibling,a=c.getAttribute(&quot;data-cfemail&quot;);if(a){for(e=&quot;&quot;,r=parseInt(a.substr(0,2),16),n=2;a.length-n;n+=2)i=parseInt(a.substr(n,2),16)^r,e+=String.fromCharCode(i);e=document.createTextNode(e),c.parentNode.replaceChild(e,c)}t.parentNode.removeChild(t);}}catch(u){}}()/* ]]&gt; */&lt;/script&gt;\nFormat settings, CABAC                   : Yes\nFormat settings, ReFrames                : 3 frames\nCodec ID                                 : avc1\nCodec ID/Info                            : Advanced Video Coding\nDuration                                 : 5mn 39s\nBit rate                                 : 1 956 Kbps\nWidth                                    : 1 920 pixels\nHeight                                   : 1 080 pixels\nDisplay aspect ratio                     : 16:9\nFrame rate mode                          : Constant\nFrame rate                               : 23.976 fps\nColor space                              : YUV\nChroma subsampling                       : 4:2:0\nBit depth                                : 8 bits\nScan type                                : Progressive\nBits/(Pixel*Frame)                       : 0.039\nStream size                              : 79.2 MiB (94%)\nEncoded date                             : UTC 2013-12-08 02:29:12\nTagged date                              : UTC 2013-12-08 02:29:12\n\nAudio\nID                                       : 2\nFormat                                   : AAC\nFormat/Info                              : Advanced Audio Codec\nFormat profile                           : LC\nCodec ID                                 : 40\nDuration                                 : 5mn 39s\nBit rate mode                            : Variable\nBit rate                                 : 126 Kbps\nChannel(s)                               : 2 channels\nChannel positions                        : Front: L R\nSampling rate                            : 44.1 KHz\nCompression mode                         : Lossy\nDelay relative to video                  : 42ms\nStream size                              : 5.09 MiB (6%)\nEncoded date                             : UTC 2013-12-08 02:28:34\nTagged date                              : UTC 2013-12-08 02:28:34\n\nShared By Sbyky\n[IMG]http://cdn.piczend.com/images/X3Ag13N3/1379453786_saythanks.gif[/IMG]\n[IMG]http://cdn.piczend.com/images/gGqhX2S8/1379453780_keepseeding.gif[/IMG]","torrent":{"xt":"urn:btih:09fd3c3f72ea213aef1dfb684d2ec719f05738a0","amp;dn":"Daft+Punk+Ft.+Julian+Casablancas+-+Instant+Crush+%5BMusic+Video%5D+1","amp;tr":["udp%3A%2F%2Ftracker.openbittorrent.com%3A80","udp%3A%2F%2Fopen.demonii.com%3A1337","udp%3A%2F%2Ftracker.coppersurfer.tk%3A6969","udp%3A%2F%2Fexodus.desync.com%3A6969"],"infoHash":"09fd3c3f72ea213aef1dfb684d2ec719f05738a0","infoHashBuffer":{"type":"Buffer","data":[9,253,60,63,114,234,33,58,239,29,251,104,77,46,199,25,240,87,56,160]},"announce":[],"urlList":[]}}